<svg width="558" height="156" viewBox="0 0 558 156" fill="none" xmlns="http://www.w3.org/2000/svg">
<path fill-rule="evenodd" clip-rule="evenodd" d="M76.5 0C34.2502 0.000262158 0 34.5664 0 77.2059C0 119.845 34.2502 154.412 76.5 154.412V0Z" fill="#87C2D6"/>
<path fill-rule="evenodd" clip-rule="evenodd" d="M167.205 -1.17647e-05C167.205 36.0366 132.639 65.25 89.9998 65.2502L89.9998 -1.17647e-05L167.205 -1.17647e-05Z" fill="#FFD500"/>
<circle cx="130.5" cy="114.75" r="40.5" fill="#F25D46"/>
<path d="M238.41 30.744C237.418 28.9253 236.054 27.5407 234.318 26.59C232.582 25.6393 230.557 25.164 228.242 25.164C225.679 25.164 223.406 25.7427 221.422 26.9C219.438 28.0573 217.888 29.7107 216.772 31.86C215.656 34.0093 215.098 36.4893 215.098 39.3C215.098 42.1933 215.656 44.7147 216.772 46.864C217.929 49.0133 219.521 50.6667 221.546 51.824C223.571 52.9813 225.927 53.56 228.614 53.56C231.921 53.56 234.628 52.692 236.736 50.956C238.844 49.1787 240.229 46.7193 240.89 43.578H226.01V36.944H249.446V44.508C248.867 47.5253 247.627 50.3153 245.726 52.878C243.825 55.4407 241.365 57.5073 238.348 59.078C235.372 60.6073 232.024 61.372 228.304 61.372C224.129 61.372 220.347 60.442 216.958 58.582C213.61 56.6807 210.965 54.056 209.022 50.708C207.121 47.36 206.17 43.5573 206.17 39.3C206.17 35.0427 207.121 31.24 209.022 27.892C210.965 24.5027 213.61 21.878 216.958 20.018C220.347 18.1167 224.109 17.166 228.242 17.166C233.119 17.166 237.356 18.3647 240.952 20.762C244.548 23.118 247.028 26.4453 248.392 30.744H238.41ZM275.956 61.434C271.905 61.434 268.185 60.4833 264.796 58.582C261.407 56.6807 258.72 54.056 256.736 50.708C254.752 47.3187 253.76 43.4953 253.76 39.238C253.76 35.022 254.752 31.24 256.736 27.892C258.72 24.5027 261.407 21.8573 264.796 19.956C268.185 18.0547 271.905 17.104 275.956 17.104C280.048 17.104 283.768 18.0547 287.116 19.956C290.505 21.8573 293.171 24.5027 295.114 27.892C297.098 31.24 298.09 35.022 298.09 39.238C298.09 43.4953 297.098 47.3187 295.114 50.708C293.171 54.056 290.505 56.6807 287.116 58.582C283.727 60.4833 280.007 61.434 275.956 61.434ZM275.956 53.684C278.56 53.684 280.854 53.1053 282.838 51.948C284.822 50.7493 286.372 49.0547 287.488 46.864C288.604 44.6733 289.162 42.1313 289.162 39.238C289.162 36.3447 288.604 33.8233 287.488 31.674C286.372 29.4833 284.822 27.8093 282.838 26.652C280.854 25.4947 278.56 24.916 275.956 24.916C273.352 24.916 271.037 25.4947 269.012 26.652C267.028 27.8093 265.478 29.4833 264.362 31.674C263.246 33.8233 262.688 36.3447 262.688 39.238C262.688 42.1313 263.246 44.6733 264.362 46.864C265.478 49.0547 267.028 50.7493 269.012 51.948C271.037 53.1053 273.352 53.684 275.956 53.684ZM324.636 61.434C320.585 61.434 316.865 60.4833 313.476 58.582C310.086 56.6807 307.4 54.056 305.416 50.708C303.432 47.3187 302.44 43.4953 302.44 39.238C302.44 35.022 303.432 31.24 305.416 27.892C307.4 24.5027 310.086 21.8573 313.476 19.956C316.865 18.0547 320.585 17.104 324.636 17.104C328.728 17.104 332.448 18.0547 335.796 19.956C339.185 21.8573 341.851 24.5027 343.794 27.892C345.778 31.24 346.77 35.022 346.77 39.238C346.77 43.4953 345.778 47.3187 343.794 50.708C341.851 54.056 339.185 56.6807 335.796 58.582C332.406 60.4833 328.686 61.434 324.636 61.434ZM324.636 53.684C327.24 53.684 329.534 53.1053 331.518 51.948C333.502 50.7493 335.052 49.0547 336.168 46.864C337.284 44.6733 337.842 42.1313 337.842 39.238C337.842 36.3447 337.284 33.8233 336.168 31.674C335.052 29.4833 333.502 27.8093 331.518 26.652C329.534 25.4947 327.24 24.916 324.636 24.916C322.032 24.916 319.717 25.4947 317.692 26.652C315.708 27.8093 314.158 29.4833 313.042 31.674C311.926 33.8233 311.368 36.3447 311.368 39.238C311.368 42.1313 311.926 44.6733 313.042 46.864C314.158 49.0547 315.708 50.7493 317.692 51.948C319.717 53.1053 322.032 53.684 324.636 53.684ZM368.355 17.724C372.902 17.724 376.891 18.6127 380.321 20.39C383.793 22.1673 386.459 24.7093 388.319 28.016C390.221 31.2813 391.171 35.084 391.171 39.424C391.171 43.764 390.221 47.5667 388.319 50.832C386.459 54.056 383.793 56.5567 380.321 58.334C376.891 60.1113 372.902 61 368.355 61H353.227V17.724H368.355ZM368.045 53.622C372.592 53.622 376.105 52.382 378.585 49.902C381.065 47.422 382.305 43.9293 382.305 39.424C382.305 34.9187 381.065 31.4053 378.585 28.884C376.105 26.3213 372.592 25.04 368.045 25.04H361.907V53.622H368.045ZM434.683 61H426.003L406.349 31.302V61H397.669V17.662H406.349L426.003 47.422V17.662H434.683V61ZM451.94 24.73V35.58H466.51V42.462H451.94V53.932H468.37V61H443.26V17.662H468.37V24.73H451.94ZM491.2 61.434C488.183 61.434 485.455 60.9173 483.016 59.884C480.619 58.8507 478.718 57.3627 477.312 55.42C475.907 53.4773 475.184 51.1833 475.142 48.538H484.442C484.566 50.3153 485.186 51.7207 486.302 52.754C487.46 53.7873 489.03 54.304 491.014 54.304C493.04 54.304 494.631 53.8287 495.788 52.878C496.946 51.886 497.524 50.6047 497.524 49.034C497.524 47.7527 497.132 46.6987 496.346 45.872C495.561 45.0453 494.569 44.4047 493.37 43.95C492.213 43.454 490.601 42.9167 488.534 42.338C485.724 41.5113 483.43 40.7053 481.652 39.92C479.916 39.0933 478.408 37.874 477.126 36.262C475.886 34.6087 475.266 32.418 475.266 29.69C475.266 27.1273 475.907 24.8953 477.188 22.994C478.47 21.0927 480.268 19.646 482.582 18.654C484.897 17.6207 487.542 17.104 490.518 17.104C494.982 17.104 498.599 18.1993 501.368 20.39C504.179 22.5393 505.729 25.5567 506.018 29.442H496.47C496.388 27.954 495.747 26.7347 494.548 25.784C493.391 24.792 491.841 24.296 489.898 24.296C488.204 24.296 486.84 24.73 485.806 25.598C484.814 26.466 484.318 27.7267 484.318 29.38C484.318 30.5373 484.69 31.5087 485.434 32.294C486.22 33.038 487.17 33.658 488.286 34.154C489.444 34.6087 491.056 35.146 493.122 35.766C495.933 36.5927 498.227 37.4193 500.004 38.246C501.782 39.0727 503.311 40.3127 504.592 41.966C505.874 43.6193 506.514 45.7893 506.514 48.476C506.514 50.7907 505.915 52.94 504.716 54.924C503.518 56.908 501.761 58.4993 499.446 59.698C497.132 60.8553 494.383 61.434 491.2 61.434ZM528.982 61.434C525.964 61.434 523.236 60.9173 520.798 59.884C518.4 58.8507 516.499 57.3627 515.094 55.42C513.688 53.4773 512.965 51.1833 512.924 48.538H522.224C522.348 50.3153 522.968 51.7207 524.084 52.754C525.241 53.7873 526.812 54.304 528.796 54.304C530.821 54.304 532.412 53.8287 533.57 52.878C534.727 51.886 535.306 50.6047 535.306 49.034C535.306 47.7527 534.913 46.6987 534.128 45.872C533.342 45.0453 532.35 44.4047 531.152 43.95C529.994 43.454 528.382 42.9167 526.316 42.338C523.505 41.5113 521.211 40.7053 519.434 39.92C517.698 39.0933 516.189 37.874 514.908 36.262C513.668 34.6087 513.048 32.418 513.048 29.69C513.048 27.1273 513.688 24.8953 514.97 22.994C516.251 21.0927 518.049 19.646 520.364 18.654C522.678 17.6207 525.324 17.104 528.3 17.104C532.764 17.104 536.38 18.1993 539.15 20.39C541.96 22.5393 543.51 25.5567 543.8 29.442H534.252C534.169 27.954 533.528 26.7347 532.33 25.784C531.172 24.792 529.622 24.296 527.68 24.296C525.985 24.296 524.621 24.73 523.588 25.598C522.596 26.466 522.1 27.7267 522.1 29.38C522.1 30.5373 522.472 31.5087 523.216 32.294C524.001 33.038 524.952 33.658 526.068 34.154C527.225 34.6087 528.837 35.146 530.904 35.766C533.714 36.5927 536.008 37.4193 537.786 38.246C539.563 39.0727 541.092 40.3127 542.374 41.966C543.655 43.6193 544.296 45.7893 544.296 48.476C544.296 50.7907 543.696 52.94 542.498 54.924C541.299 56.908 539.542 58.4993 537.228 59.698C534.913 60.8553 532.164 61.434 528.982 61.434ZM238.41 100.744C237.418 98.9253 236.054 97.5407 234.318 96.59C232.582 95.6393 230.557 95.164 228.242 95.164C225.679 95.164 223.406 95.7427 221.422 96.9C219.438 98.0573 217.888 99.7107 216.772 101.86C215.656 104.009 215.098 106.489 215.098 109.3C215.098 112.193 215.656 114.715 216.772 116.864C217.929 119.013 219.521 120.667 221.546 121.824C223.571 122.981 225.927 123.56 228.614 123.56C231.921 123.56 234.628 122.692 236.736 120.956C238.844 119.179 240.229 116.719 240.89 113.578H226.01V106.944H249.446V114.508C248.867 117.525 247.627 120.315 245.726 122.878C243.825 125.441 241.365 127.507 238.348 129.078C235.372 130.607 232.024 131.372 228.304 131.372C224.129 131.372 220.347 130.442 216.958 128.582C213.61 126.681 210.965 124.056 209.022 120.708C207.121 117.36 206.17 113.557 206.17 109.3C206.17 105.043 207.121 101.24 209.022 97.892C210.965 94.5027 213.61 91.878 216.958 90.018C220.347 88.1167 224.109 87.166 228.242 87.166C233.119 87.166 237.356 88.3647 240.952 90.762C244.548 93.118 247.028 96.4453 248.392 100.744H238.41ZM264.548 87.724V131H255.868V87.724H264.548ZM311.998 87.724L296.126 131H285.586L269.714 87.724H279.014L290.918 122.134L302.76 87.724H311.998ZM325.882 94.73V105.58H340.452V112.462H325.882V123.932H342.312V131H317.202V87.662H342.312V94.73H325.882ZM376.736 122.754H359.5L356.648 131H347.534L363.096 87.662H373.202L388.764 131H379.588L376.736 122.754ZM374.38 115.81L368.118 97.706L361.856 115.81H374.38ZM452.427 87.724L440.337 131H430.107L421.985 100.186L413.491 131L403.323 131.062L391.667 87.724H400.967L408.593 121.328L417.397 87.724H427.069L435.377 121.142L443.065 87.724H452.427ZM484.63 122.754H467.394L464.542 131H455.428L470.99 87.662H481.096L496.658 131H487.482L484.63 122.754ZM482.274 115.81L476.012 97.706L469.75 115.81H482.274ZM536.885 87.724L522.253 115.934V131H513.573V115.934L498.879 87.724H508.675L517.975 107.502L527.213 87.724H536.885Z" fill="black"/>
</svg>
